<?xml version="1.0" encoding="utf-8"?>
<!-- Generator: Adobe Illustrator 28.3.0, SVG Export Plug-In . SVG Version: 6.00 Build 0)  -->
<svg version="1.1" id="Layer_1" xmlns="http://www.w3.org/2000/svg" xmlns:xlink="http://www.w3.org/1999/xlink" x="0px" y="0px"
	 viewBox="0 0 127 31" style="enable-background:new 0 0 127 31;" xml:space="preserve">
<style type="text/css">
	.st0{fill:#59A30E;}
	.st1{fill:#FFFFFF;}
	.st2{clip-path:url(#SVGID_00000115493912558941925000000011694022306788117910_);}
	.st3{fill:#81C341;}
	.st4{fill-rule:evenodd;clip-rule:evenodd;fill:#81C341;}
	.st5{fill:#2BAAE2;}
</style>
<g>
	<g>
		<path class="st0" d="M111.5,0h-96C7,0,0,7,0,15.5S7,31,15.5,31h96c8.5,0,15.5-7,15.5-15.5S120,0,111.5,0z M35.5,28.1h-20
			c-6.9,0-12.6-5.7-12.6-12.6S8.6,2.9,15.5,2.9h20c6.9,0,12.6,5.7,12.6,12.6S42.4,28.1,35.5,28.1z"/>
		<path class="st0" d="M48.1,15.5c0,6.9-5.7,12.6-12.6,12.6h-20c-6.9,0-12.6-5.7-12.6-12.6S8.6,2.9,15.5,2.9h20
			C42.4,2.9,48.1,8.6,48.1,15.5z"/>
	</g>
	<g>
		<path class="st1" d="M48.1,15.5c0,6.9-5.7,12.6-12.6,12.6h-20c-6.9,0-12.6-5.7-12.6-12.6S8.6,2.9,15.5,2.9h20
			C42.4,2.9,48.1,8.6,48.1,15.5z"/>
	</g>
	<g>
		<defs>
			<rect id="SVGID_1_" x="7.9" y="7.5" width="34.3" height="15"/>
		</defs>
		<clipPath id="SVGID_00000156573457142042938210000004096967968615496320_">
			<use xlink:href="#SVGID_1_"  style="overflow:visible;"/>
		</clipPath>
		<g style="clip-path:url(#SVGID_00000156573457142042938210000004096967968615496320_);">
			<path class="st3" d="M21,22.3c-1.3,0-2-0.5-2-1.5v-0.6H19c0.4,0.4,0.9,0.6,1.7,0.6c0.6,0,0.8-0.2,0.8-0.5c0-0.4-0.2-0.4-1.1-0.6
				c-1.1-0.3-1.6-0.7-1.6-1.7c0-1.3,0.9-2.2,2.4-2.2c1.2,0,1.9,0.6,1.9,1.5v0.6h-0.1c-0.3-0.4-0.9-0.5-1.6-0.5
				c-0.7,0-0.9,0.2-0.9,0.5c0,0.3,0.1,0.4,1.1,0.6c0.9,0.2,1.6,0.8,1.6,1.8C23.3,21.4,22.5,22.3,21,22.3z"/>
			<path class="st3" d="M11.1,22.4c-1.1,0-1.8-0.5-1.8-2V16h0.6c0.9,0,1.3,0.4,1.3,1.2v2.9c0,0.5,0.2,0.7,0.7,0.7h0.3v0.6
				C12.2,22.1,11.9,22.4,11.1,22.4z"/>
			<path class="st3" d="M24.9,15.5c-0.6,0-1.1-0.5-1.1-1c0-0.6,0.5-1,1.1-1c0.6,0,1,0.5,1,1C25.9,15,25.5,15.5,24.9,15.5z
				 M25.8,22.4c-1.1,0-1.8-0.5-1.8-2V16h0.6c0.9,0,1.3,0.4,1.3,1.2v2.9c0,0.5,0.2,0.7,0.7,0.7h0.3v0.6
				C26.9,22.1,26.5,22.4,25.8,22.4z"/>
			<path class="st3" d="M29.8,22.5c-1.7,0-2.9-1.4-2.9-3.2c0-2.3,1-3.5,2.6-3.5c0.6,0,1,0.3,1.2,0.7v-2.5h0.7c0.8,0,1.2,0.5,1.2,1.4
				v3.9C32.6,21.4,31.8,22.5,29.8,22.5z M29.7,17.4c-0.4,0-0.8,0.5-0.8,1.6c0,1.4,0.5,1.9,1.1,1.9c0.6,0,0.8-0.6,0.8-1.6
				C30.7,17.7,30.2,17.4,29.7,17.4z"/>
			<path class="st3" d="M17.4,22.3c-0.7,0-1.1-0.3-1.1-1.2v-2.4c0-1-0.2-1.3-0.8-1.3c-0.5,0-0.7,0.3-0.7,1.2v3.7H14
				c-0.7,0-1.2-0.4-1.2-1.2v-2.4c0-1.8,1-2.9,2.8-2.9c1.8,0,2.7,0.9,2.7,2.9v3.6L17.4,22.3L17.4,22.3z"/>
			<path class="st3" d="M35.8,19.8h-0.7c0,0.7,0.6,1,1.3,1c0.9,0,1.4-0.2,1.7-0.5h0.1V21c0,0.8-0.6,1.5-2.1,1.5
				c-1.8,0-2.9-1.3-2.9-3.3c0-2,1.2-3.5,2.8-3.5c1.5,0,2.5,0.9,2.5,2.5C38.5,19.5,37.6,19.8,35.8,19.8z M35.9,17.3
				c-0.5,0-0.9,0.5-0.9,1.2h0.5c0.9,0,1.1-0.2,1.1-0.5C36.7,17.5,36.4,17.3,35.9,17.3z"/>
			<path class="st3" d="M42.1,17.5c-0.2-0.1-0.5-0.2-0.7-0.2c-0.5,0-0.7,0.2-0.7,1.1v3.9H40c-0.7,0-1.3-0.4-1.3-1.2v-2.9
				c0-1.6,0.8-2.5,2.1-2.5c0.9,0,1.4,0.5,1.4,1v0.7L42.1,17.5L42.1,17.5z"/>
			<path class="st4" d="M10.7,15.7c-0.1-1.6-1.1-2.1-2.8-1.8c0,1.6,1.1,2,2.4,1.9c-0.5-0.6-1.2-1.1-1.9-1.6
				C9.2,14.5,10,15.1,10.7,15.7z"/>
			<path class="st5" d="M15.9,11.6c0,0.2,0,0.4,0,0.4c0,0.9-0.6,1.5-1.4,1.5c-0.7,0-1.1-0.3-1.1-0.8v-0.3h0c0.2,0.2,0.5,0.3,0.9,0.3
				c0.4,0,0.6-0.2,0.6-0.7c0-0.1,0-0.2,0-0.2c-0.1,0.2-0.3,0.4-0.5,0.4c-0.7,0-1.2-0.5-1.2-1.3c0-0.9,0.6-1.7,1.4-1.7
				c0.8,0,1.2,0.4,1.2,1.5v0.4C15.8,11.2,15.8,11.4,15.9,11.6z M14.6,10c-0.3,0-0.4,0.3-0.4,0.7c0,0.5,0.2,0.7,0.4,0.7
				c0.3,0,0.4-0.2,0.4-0.7C14.9,10.2,14.8,10,14.6,10z"/>
			<path class="st5" d="M17.7,9.2c0.8,0,1.4,0.6,1.4,1.6c0,1-0.5,1.7-1.4,1.7c-0.9,0-1.4-0.7-1.4-1.6C16.3,9.9,16.8,9.2,17.7,9.2z
				 M17.7,10c-0.2,0-0.4,0.3-0.4,0.8c0,0.7,0.2,0.9,0.5,0.9c0.2,0,0.4-0.2,0.4-0.8C18.2,10.2,17.9,10,17.7,10z"/>
			<path class="st5" d="M20.9,9.2c0.8,0,1.4,0.6,1.4,1.6c0,1-0.5,1.7-1.4,1.7c-0.9,0-1.4-0.7-1.4-1.6C19.5,9.9,20,9.2,20.9,9.2z
				 M20.9,10c-0.2,0-0.4,0.3-0.4,0.8c0,0.7,0.2,0.9,0.5,0.9c0.2,0,0.4-0.2,0.4-0.8C21.3,10.2,21.1,10,20.9,10z"/>
			<path class="st5" d="M24.1,12.5c-0.8,0-1.4-0.7-1.4-1.6c0-1.1,0.5-1.7,1.3-1.7c0.3,0,0.5,0.1,0.6,0.3V8.3h0.3
				c0.4,0,0.6,0.2,0.6,0.7v1.9C25.5,12,25.1,12.5,24.1,12.5z M24,10c-0.2,0-0.4,0.3-0.4,0.8c0,0.7,0.3,0.9,0.5,0.9
				c0.3,0,0.4-0.3,0.4-0.8C24.5,10.2,24.3,10,24,10z"/>
			<path class="st5" d="M28.3,12.5c-0.4,0-0.5-0.2-0.5-0.6v-1.2c0-0.5-0.1-0.7-0.4-0.7c-0.2,0-0.4,0.2-0.4,0.6v1.8h-0.4
				c-0.4,0-0.6-0.2-0.6-0.6v-1.2c0-0.9,0.5-1.5,1.4-1.5c0.9,0,1.3,0.5,1.3,1.5v1.8H28.3z"/>
			<path class="st5" d="M30.5,11.2h-0.4c0,0.3,0.3,0.5,0.7,0.5c0.5,0,0.7-0.1,0.8-0.2h0v0.3c0,0.4-0.3,0.8-1.1,0.8
				c-0.9,0-1.4-0.7-1.4-1.6c0-1,0.6-1.7,1.4-1.7c0.7,0,1.2,0.5,1.2,1.2C31.8,11.1,31.3,11.2,30.5,11.2z M30.5,10
				c-0.2,0-0.4,0.2-0.4,0.6h0.3c0.5,0,0.5-0.1,0.5-0.2C30.9,10.1,30.8,10,30.5,10z"/>
			<path class="st5" d="M33.2,12.5c-0.7,0-1-0.3-1-0.8v-0.3h0c0.2,0.2,0.5,0.3,0.8,0.3c0.3,0,0.4-0.1,0.4-0.3c0-0.2-0.1-0.2-0.5-0.3
				c-0.5-0.1-0.8-0.4-0.8-0.9c0-0.7,0.5-1.1,1.2-1.1c0.6,0,1,0.3,1,0.7v0.3h0c-0.2-0.2-0.5-0.3-0.8-0.3c-0.3,0-0.5,0.1-0.5,0.3
				c0,0.2,0.1,0.2,0.5,0.3c0.5,0.1,0.8,0.4,0.8,0.9C34.4,12.1,33.9,12.5,33.2,12.5z"/>
			<path class="st5" d="M35.8,12.5c-0.7,0-1-0.3-1-0.8v-0.3h0c0.2,0.2,0.5,0.3,0.8,0.3c0.3,0,0.4-0.1,0.4-0.3c0-0.2-0.1-0.2-0.5-0.3
				c-0.5-0.1-0.8-0.4-0.8-0.9c0-0.7,0.5-1.1,1.2-1.1c0.6,0,1,0.3,1,0.7v0.3h0c-0.2-0.2-0.5-0.3-0.8-0.3c-0.3,0-0.5,0.1-0.5,0.3
				c0,0.2,0.1,0.2,0.5,0.3c0.5,0.1,0.8,0.4,0.8,0.9C37,12.1,36.5,12.5,35.8,12.5z"/>
			<path class="st3" d="M18.8,7.5c0,0-0.5,0.1-0.8,0.5c-0.2,0.3-0.3,0.6-0.3,0.8c0-0.2-0.1-0.5-0.3-0.8c-0.3-0.4-0.8-0.5-0.8-0.5
				s0,0.5,0.3,0.9c0.2,0.3,0.6,0.4,0.8,0.4c0-0.1-0.4-0.6-0.5-0.7c0.1,0.1,0.5,0.6,0.5,0.7c0,0,0,0,0,0c0,0,0,0,0,0s0,0,0,0
				c0,0,0,0,0,0s0,0,0,0c0,0,0,0,0,0c0.1-0.1,0.5-0.7,0.5-0.7c0,0.1-0.4,0.6-0.5,0.7c0.2,0,0.5-0.2,0.8-0.4
				C18.8,8,18.8,7.5,18.8,7.5z"/>
		</g>
	</g>
	<path class="st1" d="M56.6,10h2.8v3.7c-0.5,0.1-0.9,0.3-1.3,0.3c-0.4,0.1-0.8,0.1-1.2,0.1c-1.1,0-1.9-0.3-2.5-0.9
		c-0.6-0.6-0.8-1.5-0.8-2.7c0-1.2,0.3-2.1,1-2.7c0.7-0.6,1.6-1,2.7-1c0.7,0,1.4,0.1,2.1,0.4l-0.5,1.2C58.4,8.1,57.9,8,57.3,8
		c-0.7,0-1.2,0.2-1.6,0.7c-0.4,0.4-0.6,1-0.6,1.8c0,0.8,0.2,1.4,0.5,1.8c0.3,0.4,0.8,0.6,1.4,0.6c0.3,0,0.6,0,1-0.1v-1.5h-1.4V10z
		 M63,9.5c-0.3,0-0.6,0.1-0.7,0.3c-0.2,0.2-0.3,0.5-0.3,0.8H64c0-0.4-0.1-0.7-0.3-0.8C63.5,9.6,63.3,9.5,63,9.5z M63.2,14.1
		c-0.9,0-1.6-0.2-2.1-0.7c-0.5-0.5-0.7-1.2-0.7-2.1c0-0.9,0.2-1.6,0.7-2.1c0.5-0.5,1.1-0.8,1.9-0.8c0.8,0,1.4,0.2,1.8,0.7
		c0.4,0.4,0.6,1,0.6,1.8v0.7h-3.5c0,0.4,0.1,0.8,0.4,1c0.2,0.2,0.6,0.4,1,0.4c0.3,0,0.6,0,0.9-0.1c0.3-0.1,0.6-0.2,0.9-0.3v1.2
		c-0.3,0.1-0.5,0.2-0.8,0.3C64,14.1,63.6,14.1,63.2,14.1z M68.6,12.9c0.3,0,0.6-0.1,0.9-0.2v1.1c-0.4,0.2-0.8,0.2-1.4,0.2
		c-0.6,0-1-0.1-1.3-0.4c-0.3-0.3-0.4-0.8-0.4-1.4V9.7h-0.7V9l0.8-0.5L67,7.4h1v1.2h1.5v1.1h-1.5v2.6c0,0.2,0.1,0.4,0.2,0.5
		C68.2,12.9,68.4,12.9,68.6,12.9z M74.8,9.5c-0.3,0-0.6,0.1-0.7,0.3c-0.2,0.2-0.3,0.5-0.3,0.8h2.1c0-0.4-0.1-0.7-0.3-0.8
		C75.4,9.6,75.1,9.5,74.8,9.5z M75,14.1c-0.9,0-1.6-0.2-2.1-0.7c-0.5-0.5-0.7-1.2-0.7-2.1c0-0.9,0.2-1.6,0.7-2.1
		c0.5-0.5,1.1-0.8,1.9-0.8c0.8,0,1.4,0.2,1.8,0.7c0.4,0.4,0.6,1,0.6,1.8v0.7h-3.5c0,0.4,0.1,0.8,0.4,1c0.2,0.2,0.6,0.4,1,0.4
		c0.3,0,0.6,0,0.9-0.1c0.3-0.1,0.6-0.2,0.9-0.3v1.2c-0.3,0.1-0.5,0.2-0.8,0.3C75.8,14.1,75.4,14.1,75,14.1z M79.2,11.2l-1.8-2.7h1.7
		l1.1,1.7l1.1-1.7H83l-1.8,2.7l1.9,2.8h-1.7l-1.1-1.9L79.1,14h-1.7L79.2,11.2z M85.8,14.1c-1.7,0-2.5-0.9-2.5-2.8
		c0-0.9,0.2-1.6,0.7-2.1c0.5-0.5,1.1-0.7,2-0.7c0.6,0,1.2,0.1,1.7,0.4L87.2,10c-0.2-0.1-0.5-0.2-0.7-0.2c-0.2-0.1-0.4-0.1-0.6-0.1
		c-0.8,0-1.2,0.6-1.2,1.7c0,1.1,0.4,1.6,1.2,1.6c0.3,0,0.6,0,0.8-0.1c0.2-0.1,0.5-0.2,0.7-0.4v1.3C87.2,13.8,87,14,86.7,14
		C86.5,14.1,86.2,14.1,85.8,14.1z M89.9,14h-1.5V6.4h1.5V14z M95,14l-0.2-0.7h-0.1c-0.2,0.3-0.4,0.5-0.7,0.6c-0.3,0.1-0.6,0.2-1,0.2
		c-0.6,0-1.1-0.2-1.5-0.5c-0.3-0.3-0.5-0.8-0.5-1.5V8.5h1.5v3.2c0,0.4,0.1,0.7,0.2,0.9c0.1,0.2,0.4,0.3,0.7,0.3
		c0.4,0,0.7-0.1,0.9-0.4c0.2-0.3,0.3-0.7,0.3-1.4V8.5h1.5V14H95z M101.2,12.4c0,0.6-0.2,1-0.6,1.3c-0.4,0.3-1,0.4-1.7,0.4
		c-0.4,0-0.7,0-1-0.1c-0.3-0.1-0.5-0.1-0.8-0.2v-1.2c0.3,0.1,0.6,0.2,0.9,0.3c0.3,0.1,0.7,0.1,0.9,0.1c0.5,0,0.8-0.2,0.8-0.5
		c0-0.1,0-0.2-0.1-0.3c-0.1-0.1-0.2-0.2-0.4-0.2c-0.2-0.1-0.4-0.2-0.7-0.3c-0.4-0.2-0.7-0.3-0.9-0.5c-0.2-0.1-0.3-0.3-0.4-0.5
		C97.1,10.5,97,10.2,97,10c0-0.5,0.2-0.9,0.6-1.1c0.4-0.3,0.9-0.4,1.6-0.4c0.7,0,1.3,0.1,1.9,0.4l-0.4,1.1c-0.3-0.1-0.5-0.2-0.8-0.3
		c-0.2-0.1-0.5-0.1-0.7-0.1c-0.4,0-0.7,0.1-0.7,0.4c0,0.1,0.1,0.2,0.2,0.3c0.1,0.1,0.5,0.2,0.9,0.4c0.4,0.2,0.7,0.3,0.9,0.5
		c0.2,0.1,0.3,0.3,0.4,0.5C101.1,11.9,101.2,12.1,101.2,12.4z M101.9,7.1c0-0.5,0.3-0.7,0.8-0.7c0.5,0,0.8,0.2,0.8,0.7
		c0,0.2-0.1,0.4-0.2,0.5c-0.1,0.1-0.3,0.2-0.6,0.2C102.2,7.9,101.9,7.6,101.9,7.1z M103.5,14H102V8.5h1.5V14z M106,14l-2.1-5.5h1.6
		l1.1,3.1c0.1,0.4,0.2,0.8,0.2,1.1h0c0-0.3,0.1-0.7,0.2-1.1l1.1-3.1h1.6l-2.1,5.5H106z M112.3,9.5c-0.3,0-0.6,0.1-0.7,0.3
		c-0.2,0.2-0.3,0.5-0.3,0.8h2.1c0-0.4-0.1-0.7-0.3-0.8C112.9,9.6,112.6,9.5,112.3,9.5z M112.5,14.1c-0.9,0-1.6-0.2-2.1-0.7
		c-0.5-0.5-0.7-1.2-0.7-2.1c0-0.9,0.2-1.6,0.7-2.1c0.5-0.5,1.1-0.8,1.9-0.8c0.8,0,1.4,0.2,1.8,0.7c0.4,0.4,0.6,1,0.6,1.8v0.7h-3.5
		c0,0.4,0.1,0.8,0.4,1c0.2,0.2,0.6,0.4,1,0.4c0.3,0,0.6,0,0.9-0.1c0.3-0.1,0.6-0.2,0.9-0.3v1.2c-0.3,0.1-0.5,0.2-0.8,0.3
		C113.3,14.1,113,14.1,112.5,14.1z M55,21.3c0,0.5,0.1,0.9,0.3,1.2c0.2,0.3,0.5,0.4,0.9,0.4c0.4,0,0.7-0.1,0.9-0.4
		c0.2-0.3,0.3-0.7,0.3-1.2c0-0.5-0.1-0.9-0.3-1.2c-0.2-0.3-0.5-0.4-0.9-0.4c-0.4,0-0.7,0.1-0.9,0.4C55.1,20.3,55,20.7,55,21.3z
		 M58.7,21.3c0,0.9-0.2,1.6-0.7,2.1c-0.5,0.5-1.1,0.8-2,0.8c-0.5,0-1-0.1-1.4-0.3c-0.4-0.2-0.7-0.6-0.9-1c-0.2-0.4-0.3-0.9-0.3-1.5
		c0-0.9,0.2-1.6,0.7-2.1s1.1-0.7,2-0.7c0.5,0,1,0.1,1.4,0.3c0.4,0.2,0.7,0.6,0.9,1C58.6,20.2,58.7,20.7,58.7,21.3z M62.7,19.7h-1.3
		V24h-1.5v-4.3h-0.8v-0.7l0.8-0.4v-0.4c0-0.6,0.2-1.1,0.5-1.4c0.3-0.3,0.8-0.4,1.5-0.4c0.5,0,1,0.1,1.4,0.2l-0.4,1.1
		c-0.3-0.1-0.6-0.1-0.8-0.1c-0.2,0-0.4,0.1-0.5,0.2c-0.1,0.1-0.1,0.3-0.1,0.5v0.3h1.3V19.7z M66.5,19.7h-1.3V24h-1.5v-4.3h-0.8v-0.7
		l0.8-0.4v-0.4c0-0.6,0.2-1.1,0.5-1.4c0.3-0.3,0.8-0.4,1.5-0.4c0.5,0,1,0.1,1.4,0.2l-0.4,1.1c-0.3-0.1-0.6-0.1-0.8-0.1
		c-0.2,0-0.4,0.1-0.5,0.2c-0.1,0.1-0.1,0.3-0.1,0.5v0.3h1.3V19.7z M69.3,19.5c-0.3,0-0.6,0.1-0.7,0.3c-0.2,0.2-0.3,0.5-0.3,0.8h2.1
		c0-0.4-0.1-0.7-0.3-0.8C69.9,19.6,69.6,19.5,69.3,19.5z M69.5,24.1c-0.9,0-1.6-0.2-2.1-0.7c-0.5-0.5-0.7-1.2-0.7-2.1
		c0-0.9,0.2-1.6,0.7-2.1c0.5-0.5,1.1-0.8,1.9-0.8c0.8,0,1.4,0.2,1.8,0.7c0.4,0.4,0.6,1,0.6,1.8v0.7h-3.5c0,0.4,0.1,0.8,0.4,1
		c0.2,0.2,0.6,0.4,1,0.4c0.3,0,0.6,0,0.9-0.1c0.3-0.1,0.6-0.2,0.9-0.3v1.2c-0.3,0.1-0.5,0.2-0.8,0.3C70.3,24.1,69.9,24.1,69.5,24.1z
		 M75.7,18.4c0.2,0,0.4,0,0.5,0l-0.1,1.4c-0.1,0-0.3,0-0.4,0c-0.5,0-0.8,0.1-1.1,0.4c-0.3,0.2-0.4,0.6-0.4,1V24h-1.5v-5.5h1.1
		l0.2,0.9H74c0.2-0.3,0.4-0.6,0.7-0.7C75,18.5,75.3,18.4,75.7,18.4z M80.6,22.4c0,0.6-0.2,1-0.6,1.3c-0.4,0.3-1,0.4-1.7,0.4
		c-0.4,0-0.7,0-1-0.1c-0.3-0.1-0.5-0.1-0.8-0.2v-1.2c0.3,0.1,0.6,0.2,0.9,0.3c0.3,0.1,0.7,0.1,0.9,0.1c0.5,0,0.8-0.2,0.8-0.5
		c0-0.1,0-0.2-0.1-0.3c-0.1-0.1-0.2-0.2-0.4-0.2c-0.2-0.1-0.4-0.2-0.7-0.3c-0.4-0.2-0.7-0.3-0.9-0.5c-0.2-0.1-0.3-0.3-0.4-0.5
		c-0.1-0.2-0.1-0.4-0.1-0.7c0-0.5,0.2-0.9,0.6-1.1c0.4-0.3,0.9-0.4,1.6-0.4c0.7,0,1.3,0.1,1.9,0.4l-0.4,1.1
		c-0.3-0.1-0.5-0.2-0.8-0.3c-0.2-0.1-0.5-0.1-0.7-0.1c-0.4,0-0.7,0.1-0.7,0.4c0,0.1,0.1,0.2,0.2,0.3c0.1,0.1,0.5,0.2,0.9,0.4
		c0.4,0.2,0.7,0.3,0.9,0.5c0.2,0.1,0.3,0.3,0.4,0.5C80.6,21.9,80.6,22.1,80.6,22.4z M82.7,21.6h-1.2l-0.2-4.8H83L82.7,21.6z
		 M81.3,23.3c0-0.3,0.1-0.5,0.2-0.6c0.1-0.1,0.4-0.2,0.6-0.2c0.3,0,0.5,0.1,0.6,0.2c0.1,0.1,0.2,0.3,0.2,0.6c0,0.3-0.1,0.5-0.2,0.6
		c-0.1,0.1-0.4,0.2-0.6,0.2c-0.3,0-0.5-0.1-0.6-0.2C81.3,23.8,81.3,23.6,81.3,23.3z"/>
</g>
</svg>
